<?xml version="1.0" encoding="UTF-8" standalone="no"?>
<svg
   xmlns:dc="http://purl.org/dc/elements/1.1/"
   xmlns:cc="http://creativecommons.org/ns#"
   xmlns:rdf="http://www.w3.org/1999/02/22-rdf-syntax-ns#"
   xmlns:svg="http://www.w3.org/2000/svg"
   xmlns="http://www.w3.org/2000/svg"
   xmlns:sodipodi="http://sodipodi.sourceforge.net/DTD/sodipodi-0.dtd"
   xmlns:inkscape="http://www.inkscape.org/namespaces/inkscape"
   width="450px"
   height="250px"
   viewBox="0 0 450 250"
   version="1.1"
   id="SVGRoot"
   sodipodi:docname="acceleratewb.svg"
   inkscape:version="1.0.1 (3bc2e813f5, 2020-09-07)">
  <defs
     id="defs3988" />
  <sodipodi:namedview
     id="base"
     pagecolor="#ffffff"
     bordercolor="#666666"
     borderopacity="1.0"
     inkscape:pageopacity="0.0"
     inkscape:pageshadow="2"
     inkscape:zoom="1.7867498"
     inkscape:cx="171.41149"
     inkscape:cy="235.51845"
     inkscape:document-units="px"
     inkscape:current-layer="layer1"
     inkscape:document-rotation="0"
     showgrid="false"
     inkscape:window-width="1920"
     inkscape:window-height="1057"
     inkscape:window-x="-8"
     inkscape:window-y="-8"
     inkscape:window-maximized="1" />
  <metadata
     id="metadata3991">
    <rdf:RDF>
      <cc:Work
         rdf:about="">
        <dc:format>image/svg+xml</dc:format>
        <dc:type
           rdf:resource="http://purl.org/dc/dcmitype/StillImage" />
        <dc:title />
      </cc:Work>
    </rdf:RDF>
  </metadata>
  <g
     inkscape:label="Layer 1"
     inkscape:groupmode="layer"
     id="layer1">
    <text
       xml:space="preserve"
       style="font-style:normal;font-variant:normal;font-weight:normal;font-stretch:normal;font-size:83.9014px;line-height:1.25;font-family:'Bauhaus 93';-inkscape-font-specification:'Bauhaus 93, Normal';font-variant-ligatures:normal;font-variant-caps:normal;font-variant-numeric:normal;font-variant-east-asian:normal;fill:#000000;fill-opacity:1;stroke:none;stroke-width:2.09753"
       x="2.1681786"
       y="138.86964"
       id="text3397"
       transform="scale(0.85478815,1.1698805)"
       clip-path="none"
       inkscape:export-xdpi="96"
       inkscape:export-ydpi="96"><tspan
         sodipodi:role="line"
         id="tspan3395"
         x="2.1681786"
         y="138.86964"
         style="font-style:normal;font-variant:normal;font-weight:normal;font-stretch:normal;font-size:83.9014px;font-family:'Bauhaus 93';-inkscape-font-specification:'Bauhaus 93, Normal';font-variant-ligatures:normal;font-variant-caps:normal;font-variant-numeric:normal;font-variant-east-asian:normal;stroke-width:2.09753">acceleratewb</tspan><tspan
         sodipodi:role="line"
         x="2.1681786"
         y="243.7464"
         style="font-style:normal;font-variant:normal;font-weight:normal;font-stretch:normal;font-size:83.9014px;font-family:'Bauhaus 93';-inkscape-font-specification:'Bauhaus 93, Normal';font-variant-ligatures:normal;font-variant-caps:normal;font-variant-numeric:normal;font-variant-east-asian:normal;stroke-width:2.09753"
         id="tspan3399" /></text>
    <path
       style="fill:none;stroke:#000000;stroke-width:0.536851px;stroke-linecap:butt;stroke-linejoin:miter;stroke-opacity:1"
       d="m 219.99133,71.328561 19.48847,16.8746 -17.51139,16.249619"
       id="path30-8" />
    <path
       style="fill:none;stroke:#000000;stroke-width:0.536851px;stroke-linecap:butt;stroke-linejoin:miter;stroke-opacity:1"
       d="m 230.45888,71.331561 19.48848,16.87461 -17.51139,16.249609"
       id="path30-2-0" />
    <path
       style="fill:none;stroke:#000000;stroke-width:0.536851px;stroke-linecap:butt;stroke-linejoin:miter;stroke-opacity:1"
       d="m 219.99133,71.328561 10.46755,0.003"
       id="path69" />
    <path
       style="fill:none;stroke:#000000;stroke-width:0.536851px;stroke-linecap:butt;stroke-linejoin:miter;stroke-opacity:1"
       d="m 221.96841,104.45278 10.46756,0.003"
       id="path71" />
    <path
       style="fill:#000000;fill-opacity:1;fill-rule:nonzero;stroke:none;stroke-width:0.297088;stroke-opacity:1"
       d="m 228.70873,98.84797 c 9.34178,-8.671539 11.10164,-10.335229 11.18952,-10.578139 0.0468,-0.1295 -4.0203,-3.78338 -9.03813,-8.11975 -5.01783,-4.33636 -9.24407,-8.0059 -9.39165,-8.15453 -0.15201,-0.1531 1.68612,-0.27023 4.24053,-0.27023 h 4.50885 l 8.77681,7.59369 c 4.82723,4.17654 9.11514,7.88816 9.52866,8.24805 l 0.75186,0.65434 -8.4603,7.845329 -8.46029,7.84532 h -4.55068 -4.55067 z"
       id="path2876" />
    <path
       style="fill:none;stroke:#000000;stroke-width:0.536851px;stroke-linecap:butt;stroke-linejoin:miter;stroke-opacity:1"
       d="m 247.57107,72.273591 19.48849,16.87459 -17.51139,16.249619"
       id="path30-8-3" />
    <path
       style="fill:none;stroke:#000000;stroke-width:0.536851px;stroke-linecap:butt;stroke-linejoin:miter;stroke-opacity:1"
       d="m 258.03863,72.276581 19.48848,16.87461 -17.51139,16.249619"
       id="path30-2-0-3" />
    <path
       style="fill:none;stroke:#000000;stroke-width:0.536851px;stroke-linecap:butt;stroke-linejoin:miter;stroke-opacity:1"
       d="m 247.57107,72.273591 10.46756,0.003"
       id="path69-1" />
    <path
       style="fill:none;stroke:#000000;stroke-width:0.536851px;stroke-linecap:butt;stroke-linejoin:miter;stroke-opacity:1"
       d="m 249.54817,105.3978 10.46755,0.003"
       id="path71-1" />
    <path
       style="fill:#000000;fill-opacity:1;fill-rule:nonzero;stroke:none;stroke-width:0.297088;stroke-opacity:1"
       d="m 256.28849,99.793 c 9.34178,-8.671539 11.10163,-10.335239 11.18952,-10.578139 0.0468,-0.1295 -4.0203,-3.78339 -9.03813,-8.11975 -5.01784,-4.33637 -9.24407,-8.0059 -9.39165,-8.15453 -0.15201,-0.1531 1.68612,-0.27024 4.24053,-0.27024 h 4.50885 l 8.7768,7.5937 c 4.82724,4.17654 9.11514,7.88815 9.52867,8.24804 l 0.75186,0.65435 -8.4603,7.845319 -8.46029,7.84532 h -4.55068 -4.55068 z"
       id="path2876-0" />
    <path
       style="fill:none;stroke:#000000;stroke-width:0.536851px;stroke-linecap:butt;stroke-linejoin:miter;stroke-opacity:1"
       d="m 190.68083,71.796451 19.48848,16.8746 -17.51139,16.249609"
       id="path30-8-6" />
    <path
       style="fill:none;stroke:#000000;stroke-width:0.536851px;stroke-linecap:butt;stroke-linejoin:miter;stroke-opacity:1"
       d="m 201.14838,71.799461 19.48849,16.87459 -17.51139,16.249619"
       id="path30-2-0-37" />
    <path
       style="fill:none;stroke:#000000;stroke-width:0.536851px;stroke-linecap:butt;stroke-linejoin:miter;stroke-opacity:1"
       d="m 190.68083,71.796451 10.46755,0.003"
       id="path69-8" />
    <path
       style="fill:none;stroke:#000000;stroke-width:0.536851px;stroke-linecap:butt;stroke-linejoin:miter;stroke-opacity:1"
       d="m 192.65792,104.92066 10.46756,0.003"
       id="path71-9" />
    <path
       style="fill:#000000;fill-opacity:1;fill-rule:nonzero;stroke:none;stroke-width:0.297088;stroke-opacity:1"
       d="m 199.39824,99.31586 c 9.34179,-8.671539 11.10163,-10.335239 11.18952,-10.578139 0.0468,-0.12949 -4.0203,-3.78337 -9.03814,-8.11975 -5.01782,-4.33636 -9.24406,-8.0059 -9.39164,-8.15453 -0.15201,-0.1531 1.68612,-0.27023 4.24053,-0.27023 h 4.50884 l 8.77681,7.5937 c 4.82724,4.17653 9.11514,7.88815 9.52866,8.24804 l 0.75187,0.65434 -8.46029,7.845329 -8.4603,7.84532 h -4.55068 -4.55068 z"
       id="path2876-4" />
  </g>
</svg>
