<svg id="visual" viewBox="0 0 900 450" width="900" height="450" xmlns="http://www.w3.org/2000/svg" xmlns:xlink="http://www.w3.org/1999/xlink" version="1.1"><rect x="0" y="0" width="900" height="450" fill="#FFFFFF"></rect><g transform="translate(446.07909447190474 234.65299497714747)"><path d="M79.5 -121.8C102.7 -124.3 121.1 -102.4 120 -78C119 -53.7 98.5 -26.8 94.6 -2.3C90.7 22.3 103.4 44.7 101.1 63.3C98.9 81.9 81.7 96.8 62.3 96.2C43 95.6 21.5 79.4 -1.6 82.2C-24.7 84.9 -49.3 106.5 -59.9 102.1C-70.4 97.6 -66.8 67.1 -77.1 45.7C-87.5 24.3 -111.7 12.2 -112.2 -0.2C-112.6 -12.7 -89.2 -25.3 -76.4 -42.4C-63.5 -59.4 -61.3 -80.8 -50.3 -85.5C-39.3 -90.1 -19.7 -78.1 4.2 -85.4C28.1 -92.7 56.2 -119.4 79.5 -121.8" fill="none" stroke="#b6d6f9" stroke-width="6"></path></g></svg>