<svg id="visual" viewBox="0 0 900 600" width="900" height="600" xmlns="http://www.w3.org/2000/svg" xmlns:xlink="http://www.w3.org/1999/xlink" version="1.1"><rect x="0" y="0" width="900" height="600" fill="#308acf"></rect><defs><linearGradient id="grad1_0" x1="33.3%" y1="0%" x2="100%" y2="100%"><stop offset="20%" stop-color="#70d4ff" stop-opacity="1"></stop><stop offset="80%" stop-color="#70d4ff" stop-opacity="1"></stop></linearGradient></defs><defs><linearGradient id="grad1_1" x1="33.3%" y1="0%" x2="100%" y2="100%"><stop offset="20%" stop-color="#70d4ff" stop-opacity="1"></stop><stop offset="80%" stop-color="#56bbf0" stop-opacity="1"></stop></linearGradient></defs><defs><linearGradient id="grad1_2" x1="33.3%" y1="0%" x2="100%" y2="100%"><stop offset="20%" stop-color="#40a3e0" stop-opacity="1"></stop><stop offset="80%" stop-color="#56bbf0" stop-opacity="1"></stop></linearGradient></defs><defs><linearGradient id="grad1_3" x1="33.3%" y1="0%" x2="100%" y2="100%"><stop offset="20%" stop-color="#40a3e0" stop-opacity="1"></stop><stop offset="80%" stop-color="#308acf" stop-opacity="1"></stop></linearGradient></defs><defs><linearGradient id="grad2_0" x1="0%" y1="0%" x2="66.7%" y2="100%"><stop offset="20%" stop-color="#70d4ff" stop-opacity="1"></stop><stop offset="80%" stop-color="#70d4ff" stop-opacity="1"></stop></linearGradient></defs><defs><linearGradient id="grad2_1" x1="0%" y1="0%" x2="66.7%" y2="100%"><stop offset="20%" stop-color="#56bbf0" stop-opacity="1"></stop><stop offset="80%" stop-color="#70d4ff" stop-opacity="1"></stop></linearGradient></defs><defs><linearGradient id="grad2_2" x1="0%" y1="0%" x2="66.7%" y2="100%"><stop offset="20%" stop-color="#56bbf0" stop-opacity="1"></stop><stop offset="80%" stop-color="#40a3e0" stop-opacity="1"></stop></linearGradient></defs><defs><linearGradient id="grad2_3" x1="0%" y1="0%" x2="66.7%" y2="100%"><stop offset="20%" stop-color="#308acf" stop-opacity="1"></stop><stop offset="80%" stop-color="#40a3e0" stop-opacity="1"></stop></linearGradient></defs><g transform="translate(900, 0)"><path d="M0 486.7C-55.4 447 -110.8 407.3 -154.6 373.2C-198.5 339.2 -230.8 310.7 -284.3 284.3C-337.7 257.8 -412.4 233.3 -449.7 186.3C-487 139.2 -486.9 69.6 -486.7 0L0 0Z" fill="#3796d8"></path><path d="M0 365.1C-41.5 335.3 -83.1 305.5 -116 279.9C-148.8 254.4 -173.1 233 -213.2 213.2C-253.3 193.3 -309.3 175 -337.3 139.7C-365.2 104.4 -365.1 52.2 -365.1 0L0 0Z" fill="#4bafe8"></path><path d="M0 243.4C-27.7 223.5 -55.4 203.7 -77.3 186.6C-99.2 169.6 -115.4 155.4 -142.1 142.1C-168.9 128.9 -206.2 116.7 -224.8 93.1C-243.5 69.6 -243.4 34.8 -243.4 0L0 0Z" fill="#63c8f8"></path><path d="M0 121.7C-13.8 111.8 -27.7 101.8 -38.7 93.3C-49.6 84.8 -57.7 77.7 -71.1 71.1C-84.4 64.4 -103.1 58.3 -112.4 46.6C-121.7 34.8 -121.7 17.4 -121.7 0L0 0Z" fill="#70d4ff"></path></g><g transform="translate(0, 600)"><path d="M0 -486.7C56.6 -455.2 113.1 -423.6 163.8 -395.4C214.5 -367.2 259.2 -342.4 310.4 -310.4C361.6 -278.4 419.2 -239.2 449.7 -186.3C480.2 -133.3 483.5 -66.7 486.7 0L0 0Z" fill="#3796d8"></path><path d="M0 -365.1C42.4 -341.4 84.8 -317.7 122.8 -296.6C160.8 -275.4 194.4 -256.8 232.8 -232.8C271.2 -208.8 314.4 -179.4 337.3 -139.7C360.1 -100 362.6 -50 365.1 0L0 0Z" fill="#4bafe8"></path><path d="M0 -243.4C28.3 -227.6 56.6 -211.8 81.9 -197.7C107.2 -183.6 129.6 -171.2 155.2 -155.2C180.8 -139.2 209.6 -119.6 224.8 -93.1C240.1 -66.7 241.7 -33.3 243.4 0L0 0Z" fill="#63c8f8"></path><path d="M0 -121.7C14.1 -113.8 28.3 -105.9 40.9 -98.9C53.6 -91.8 64.8 -85.6 77.6 -77.6C90.4 -69.6 104.8 -59.8 112.4 -46.6C120 -33.3 120.9 -16.7 121.7 0L0 0Z" fill="#70d4ff"></path></g></svg>