<svg id="visual" viewBox="0 0 900 450" width="900" height="450" xmlns="http://www.w3.org/2000/svg" xmlns:xlink="http://www.w3.org/1999/xlink" version="1.1"><rect x="0" y="0" width="900" height="450" fill="#ffffff"></rect><path d="M122 0L120 0L120 30L124 30L124 60L81 60L81 90L127 90L127 120L135 120L135 150L117 150L117 180L132 180L132 210L103 210L103 240L120 240L120 270L106 270L106 300L107 300L107 330L82 330L82 360L104 360L104 390L102 390L102 420L98 420L98 450L0 450L0 420L0 420L0 390L0 390L0 360L0 360L0 330L0 330L0 300L0 300L0 270L0 270L0 240L0 240L0 210L0 210L0 180L0 180L0 150L0 150L0 120L0 120L0 90L0 90L0 60L0 60L0 30L0 30L0 0L0 0Z" fill="#b4ddff"></path><path d="M79 0L77 0L77 30L47 30L47 60L77 60L77 90L58 90L58 120L63 120L63 150L72 150L72 180L63 180L63 210L72 210L72 240L48 240L48 270L57 270L57 300L71 300L71 330L52 330L52 360L84 360L84 390L63 390L63 420L58 420L58 450L0 450L0 420L0 420L0 390L0 390L0 360L0 360L0 330L0 330L0 300L0 300L0 270L0 270L0 240L0 240L0 210L0 210L0 180L0 180L0 150L0 150L0 120L0 120L0 90L0 90L0 60L0 60L0 30L0 30L0 0L0 0Z" fill="#c2f6ff"></path></svg>