<svg xmlns="http://www.w3.org/2000/svg" width="129" height="35" viewBox="0 0 129 35"><g fill="#9CA3AF"><circle cx="19.344" cy="17.184" r="3.456"/><path d="M19.344 25.104a38.41 38.41 0 0 1-12.24-1.68 16.049 16.049 0 0 1-5.04-2.688C.72 19.584.048 18.384.048 17.184c0-2.304 2.496-4.512 6.72-6a39.748 39.748 0 0 1 12.624-1.872c4.608 0 9.024.624 12.432 1.824 2.016.672 3.696 1.584 4.896 2.592 1.296 1.104 1.968 2.256 1.968 3.456 0 2.352-2.784 4.8-7.296 6.288a40.415 40.415 0 0 1-12.048 1.632zm0-14.112c-4.464 0-8.832.624-12.096 1.776-2.784.96-5.616 2.736-5.616 4.416 0 .672.528 1.488 1.44 2.304 1.104.912 2.64 1.776 4.512 2.4a36.714 36.714 0 0 0 11.712 1.584c4.368 0 8.448-.528 11.52-1.584 4.272-1.392 6.192-3.408 6.192-4.704 0-.624-.48-1.44-1.392-2.16a14.261 14.261 0 0 0-4.368-2.304 38.423 38.423 0 0 0-11.904-1.728z"/><path d="M11.52 34.416c-.72 0-1.344-.144-1.824-.432-1.968-1.152-2.64-4.416-1.824-8.784a39.246 39.246 0 0 1 4.704-11.856A40.208 40.208 0 0 1 20.4 3.456c1.584-1.392 3.216-2.4 4.656-2.928 1.584-.576 2.976-.576 3.984 0 2.064 1.2 2.736 4.8 1.776 9.456a39.768 39.768 0 0 1-4.56 11.232 39.824 39.824 0 0 1-7.536 9.792c-1.632 1.44-3.312 2.496-4.848 3.024-.96.24-1.68.384-2.352.384zm2.4-20.304A38.425 38.425 0 0 0 9.408 25.44c-.528 2.88-.432 6.192 1.056 7.056 1.104.624 3.792.048 7.056-2.832 2.4-2.112 4.896-5.328 7.2-9.36a38.063 38.063 0 0 0 4.416-10.752 14.4 14.4 0 0 0 .288-5.232c-.192-1.248-.624-2.112-1.248-2.448-.576-.336-1.488-.288-2.592.096a14.87 14.87 0 0 0-4.176 2.64 40.282 40.282 0 0 0-7.488 9.504z"/><path d="M27.168 34.416c-1.872 0-4.272-1.152-6.72-3.264a39.282 39.282 0 0 1-7.92-9.984c-2.304-3.984-3.984-8.16-4.656-11.712-.432-2.064-.48-3.984-.192-5.52.288-1.68.96-2.88 1.968-3.456 2.064-1.2 5.52.048 9.072 3.168a42.342 42.342 0 0 1 7.44 9.552 37.913 37.913 0 0 1 4.704 11.424c.432 2.112.48 4.128.192 5.712-.336 1.728-1.056 2.928-2.064 3.552a3.03 3.03 0 0 1-1.824.528zm-13.2-14.064c2.208 3.84 4.992 7.344 7.584 9.552 2.256 1.92 5.136 3.504 6.624 2.64 1.104-.624 1.92-3.264 1.056-7.488a37.242 37.242 0 0 0-4.512-10.944 37.962 37.962 0 0 0-7.104-9.168A14.706 14.706 0 0 0 13.2 2.112c-1.152-.432-2.16-.48-2.736-.144-.576.336-.96 1.152-1.2 2.304a14.41 14.41 0 0 0 .192 4.896c.672 3.36 2.256 7.344 4.512 11.184zm44.016 9.024l-6.288-9.84h-4.944v9.84H43.68V4.656h9.936c4.512 0 7.728 2.88 7.728 7.44 0 4.464-3.024 6.912-6.432 7.2l6.672 10.08h-3.6zm.192-17.28c0-2.784-2.016-4.704-4.944-4.704h-6.48v9.456h6.48c2.928 0 4.944-1.968 4.944-4.752zM64.32 20.4c0-5.184 3.696-9.36 8.832-9.36 5.424 0 8.592 4.224 8.592 9.6v.72H67.248c.24 3.36 2.592 6.192 6.432 6.192 2.016 0 4.128-.816 5.52-2.256l1.344 1.824a9.7 9.7 0 0 1-7.104 2.736c-5.28-.048-9.12-3.84-9.12-9.456zm8.784-7.056c-3.84 0-5.712 3.216-5.856 5.952h11.76c-.048-2.688-1.824-5.952-5.904-5.952zm23.232 16.032V27.36a7.73 7.73 0 0 1-5.952 2.496c-3.024 0-6.288-2.016-6.288-5.952 0-3.984 3.216-5.904 6.288-5.904 2.448 0 4.464.768 5.952 2.448v-3.216c0-2.4-1.92-3.792-4.512-3.792-2.16 0-3.888.768-5.472 2.496l-1.296-1.92c1.92-2.016 4.224-2.976 7.152-2.976 3.792 0 6.912 1.728 6.912 6.048v12.288h-2.784zm0-3.792v-3.36c-1.056-1.488-2.976-2.208-4.944-2.208-2.592 0-4.416 1.632-4.416 3.936 0 2.256 1.824 3.888 4.416 3.888 1.968 0 3.84-.768 4.944-2.256zm5.424-5.184c0-5.28 3.6-9.36 8.928-9.36 3.264 0 5.184 1.344 6.576 3.12l-1.872 1.728a5.279 5.279 0 0 0-4.56-2.352c-3.84 0-6.192 2.928-6.192 6.912s2.352 6.912 6.192 6.912c1.872 0 3.36-.72 4.56-2.352l1.872 1.728a7.726 7.726 0 0 1-6.576 3.12c-5.328-.048-8.928-4.128-8.928-9.456zm19.968 5.232V13.92h-2.976v-2.448h2.976V6.576h2.784v4.896h3.648v2.448h-3.648v11.136c0 1.344.576 2.304 1.824 2.304.768 0 1.536-.336 1.872-.72l.816 2.064a4.608 4.608 0 0 1-3.36 1.152c-2.64-.048-3.936-1.536-3.936-4.224z"/></g></svg>